<?xml version="1.0" encoding="UTF-8"?>
<svg version="1.1" xmlns="http://www.w3.org/2000/svg" width="512" height="512">
<path d="M0 0 C168.96 0 337.92 0 512 0 C512 168.96 512 337.92 512 512 C343.04 512 174.08 512 0 512 C0 343.04 0 174.08 0 0 Z " fill="#222222" transform="translate(0,0)"/>
<path d="M0 0 C32.01 0 64.02 0 97 0 C97 72.6 97 145.2 97 220 C113.5 220 130 220 147 220 C147 232.21 147 244.42 147 257 C98.49 257 49.98 257 0 257 C0 244.79 0 232.58 0 220 C16.5 220 33 220 50 220 C50 159.61 50 99.22 50 37 C33.5 37 17 37 0 37 C0 24.79 0 12.58 0 0 Z " fill="#FEFEFE" transform="translate(183,192)"/>
<path d="M0 0 C6.77401742 4.44303424 11.83094826 11.81244597 14.2421875 19.53515625 C16.45800403 31.70969876 15.33810861 44.99720429 8.6796875 55.66015625 C3.36946264 62.20834764 -4.83941946 67.48354287 -13.1953125 68.78515625 C-22.94131492 69.64699876 -32.55491942 69.94048372 -41.1953125 64.78515625 C-42.26652344 64.14900391 -42.26652344 64.14900391 -43.359375 63.5 C-50.99318409 58.36790737 -55.80247643 50.5929745 -58.1953125 41.78515625 C-58.59114686 38.62525355 -58.61652718 35.52876696 -58.5703125 32.34765625 C-58.58191406 31.55294922 -58.59351563 30.75824219 -58.60546875 29.93945312 C-58.55515602 19.63372835 -54.82007284 10.77575466 -47.75390625 3.25 C-34.66511328 -8.41222153 -14.72562758 -8.14887932 0 0 Z " fill="#FDFDFD" transform="translate(272.1953125,69.21484375)"/>
<path d="M0 0 C0.33 0 0.66 0 1 0 C1 13.53 1 27.06 1 41 C-12.53 41 -26.06 41 -40 41 C-36.77794772 39.38897386 -33.66489916 38.09649079 -30.3125 36.8125 C-17.71232801 31.5611525 -8.22889841 22.19948407 -2.96484375 9.59765625 C-1.78548854 6.42246916 -0.80417774 3.28981803 0 0 Z " fill="#000000" transform="translate(511,471)"/>
<path d="M0 0 C1.61102614 3.22205228 2.90350921 6.33510084 4.1875 9.6875 C9.4388475 22.28767199 18.80051593 31.77110159 31.40234375 37.03515625 C34.57753084 38.21451146 37.71018197 39.19582226 41 40 C41 40.33 41 40.66 41 41 C27.47 41 13.94 41 0 41 C0 27.47 0 13.94 0 0 Z " fill="#000000" transform="translate(0,471)"/>
<path d="M0 0 C13.53 0 27.06 0 41 0 C41 13.53 41 27.06 41 41 C39.38897386 37.77794772 38.09649079 34.66489916 36.8125 31.3125 C31.5611525 18.71232801 22.19948407 9.22889841 9.59765625 3.96484375 C6.42246916 2.78548854 3.28981803 1.80417774 0 1 C0 0.67 0 0.34 0 0 Z " fill="#000000" transform="translate(471,0)"/>
<path d="M0 0 C13.53 0 27.06 0 41 0 C37.77794772 1.61102614 34.66489916 2.90350921 31.3125 4.1875 C18.71232801 9.4388475 9.22889841 18.80051593 3.96484375 31.40234375 C2.78548854 34.57753084 1.80417774 37.71018197 1 41 C0.67 41 0.34 41 0 41 C0 27.47 0 13.94 0 0 Z " fill="#000000" transform="translate(0,0)"/>
</svg>
